<?xml version="1.0" encoding="utf-8"?>
<!-- Generator: Adobe Illustrator 15.1.0, SVG Export Plug-In . SVG Version: 6.00 Build 0)  -->
<!DOCTYPE svg PUBLIC "-//W3C//DTD SVG 1.1//EN" "http://www.w3.org/Graphics/SVG/1.1/DTD/svg11.dtd">
<svg version="1.1" id="Layer_1" xmlns="http://www.w3.org/2000/svg" xmlns:xlink="http://www.w3.org/1999/xlink" x="0px" y="0px"
	 width="400px" height="400px" viewBox="0 0 400 400" enable-background="new 0 0 400 400" xml:space="preserve">
<path fill-rule="evenodd" clip-rule="evenodd" fill="#8D4E9F" d="M144.218,321.087c6.261-5.848,13.849-11.438,21.028-16.646
	c7.403-5.372,14.76-10.186,22.08-15.421c3.7,2.141,7.617,4.065,11.391,6.133c-16.481,6.534-29.558,16.47-41.707,27.337
	c-0.657,0.511-1.241,1.095-1.752,1.752c-0.407,0.119-0.469,0.583-0.876,0.701c-1.417,1.271-2.76,2.614-4.03,4.03
	c-0.461,0.182-0.59,0.695-1.051,0.876c-1.125,0.979-2.176,2.03-3.154,3.154c-0.774,0.628-1.475,1.329-2.103,2.104
	c-0.774,0.627-1.475,1.328-2.103,2.103c-6.981,7.251-11.443,16.543-16.823,25.233c-5.354,8.65-11.805,16.391-18.224,23.832
	c-0.658,0.511-1.242,1.095-1.752,1.753c-0.119,0.406-0.583,0.469-0.701,0.876c-2.292,2.146-4.512,4.366-6.659,6.659
	c-1.65,0.979-2.472,2.785-4.731,3.153c0.818-2.061,2.577-3.429,3.855-5.081c3.625-4.687,7.133-10.642,7.71-18.575
	c0.951-13.064-3.567-25.214-7.36-34.346c-4.178-10.06-9.866-18.807-15.246-26.461c-0.686-0.833-1.445-1.592-2.278-2.277
	c-6.218-6.483-19.018-2.02-24.358,1.927c-0.855,0.488-1.871,0.815-2.628,1.402c-8.938,4.827-23.027,6.441-30.315-1.227
	c-2.566-2.7-3.549-6.504-4.03-11.215c0-0.936,0-1.87,0-2.804c0.029-3.053,1.37-4.738,0.701-6.835
	c-0.586-1.836-3.257-2.182-4.556-3.329c-1.369-1.209-2.932-3.677-2.453-6.484c0.162-0.948,1.066-1.922,2.103-2.979
	c0.711-0.726,2.157-2.117,1.927-2.979c-0.307-1.152-4.334-1.583-5.432-2.278c-2.289-1.45-2.792-3.214-3.505-5.958
	c0-0.76,0-1.519,0-2.278c0.287-4.083,3.981-3.614,4.381-7.009c0.323-2.734-1.54-4.822-3.329-5.607
	c-3.107-1.363-7.167-0.374-8.236-3.68c0-0.584,0-1.168,0-1.752c0.156-1.013,0.622-1.714,0.876-2.628
	c0.391-0.485,0.682-1.07,0.876-1.752c3.236-7.877,6.85-15.958,10.514-24.007c0.982-2.157,3.371-5.739,3.154-8.236
	c-0.188-2.172-3.05-3.378-4.381-5.082c-2.181-2.792-3.552-7.018-5.082-10.689c0.327-0.307,1.278,0.696,1.928,1.227
	c1.333,1.089,4.733,4.711,7.535,4.031c3.198-0.777,0.592-6.676,0-9.112c-0.884-3.636-1.342-6.947-1.577-10.689
	c-0.111-0.59,0.226-1.627-0.175-1.927c0-2.22,0-4.439,0-6.659c0.404-0.472,0.062-1.69,0.175-2.453
	c0.788-25.945,10.168-44.694,20.853-61.332c8.007-12.47,16.682-24.39,26.285-35.397c3.164-3.627,6.108-7.591,9.988-10.514
	c-0.984,2.682-3.001,4.696-4.381,7.185c-9.42,16.996-14.271,38.902-15.246,64.662c-0.401,0.3-0.064,1.337-0.175,1.928
	c0,0.701,0,1.402,0,2.103c-0.404,0.473-0.062,1.69-0.175,2.454c0,0.876,0,1.752,0,2.628c-0.406,0.762-0.06,2.276-0.175,3.329
	c0,3.68,0,7.36,0,11.04c0.112,0.706-0.228,1.863,0.175,2.278c0.616,22.458,8.006,38.14,15.07,54.148
	c0.444,1.075,0.842,2.195,1.577,2.979c4.708,9.37,11.103,17.051,11.565,30.666c0.114,0.879-0.229,2.215,0.175,2.804
	c0,0.292,0,0.584,0,0.876c-0.405,0.646-0.061,2.042-0.175,2.979c0.133,5.44-1.808,9.723-1.928,14.194
	c2.868,0.343,4.053-2.103,6.309-2.103c2.302,0,4.046,1.86,4.731,3.329c0.903,1.936,0.62,5.356,2.278,5.783
	c2.366,0.609,4.173-2.614,5.257-4.031c1.216-1.589,3.119-3.664,5.257-3.855c3.565-0.319,6.164,2.735,7.885,5.082
	c1.99,2.712,3.003,5.255,4.556,8.236c0.914,2.007,1.773,4.068,2.979,5.783c0.759,1.928,1.772,3.602,2.628,5.432
	c0.955,1.791,1.752,3.739,2.804,5.433c3.368,6.485,6.234,15.051,8.412,24.183c0.529,2.221,1.266,7.326,2.979,7.71
	c2.55,0.571,3.558-3.011,5.082-4.03C140.436,325.016,142.364,323.088,144.218,321.087z"/>
<path fill-rule="evenodd" clip-rule="evenodd" fill="#8D4E9F" d="M200.994,294.977c3.507-2.451,8.052-3.864,12.267-5.607
	c0.315,1.086,1.604,1.375,2.453,1.928c13.619,8.845,27.541,18.777,39.604,29.44c0.744,0.891,1.563,1.708,2.453,2.453
	c0.716,0.568,1.358,1.212,1.928,1.928c0.686,0.832,1.445,1.592,2.277,2.277c0.982,0.801,2.296,3.799,4.381,3.505
	c2.25-0.317,3.067-7.772,3.681-10.339c2.646-11.075,7.704-21.12,11.916-29.615c0.059,0,0.116,0,0.175,0
	c0.291-0.585,0.586-1.167,0.876-1.752c2.126-4.022,3.639-7.705,5.958-11.741c1.829-3.182,4.919-8.873,9.638-8.411
	c2.307,0.226,4.112,2.101,5.433,3.855c1.137,1.51,2.923,4.395,5.082,4.031c1.986-0.335,1.481-3.743,2.453-5.783
	c0.633-1.329,2.392-3.246,4.556-3.329c2.365-0.091,3.736,2.41,6.309,2.103c1.184-1.689-0.466-3.627-0.876-5.607
	c-0.588-2.833-0.536-6.118-0.876-9.287c0-1.752,0-3.505,0-5.257c0.137-13.655,7.01-22.357,11.916-31.717
	c1.65-3.149,2.892-6.515,4.381-9.989c5.73-13.363,11.406-26.93,11.916-46.086c0.4-0.3,0.064-1.338,0.175-1.928
	c0-1.051,0-2.103,0-3.154c0.292-1.753,0.292-4.729,0-6.483c0-1.227,0-2.454,0-3.68c-0.114-0.995,0.23-2.45-0.175-3.154
	c0-0.876,0-1.752,0-2.628c-0.112-0.705,0.228-1.863-0.176-2.278c0-0.643,0-1.285,0-1.928c-0.11-0.59,0.226-1.627-0.175-1.928
	c-0.704-23.945-5.477-43.823-13.493-60.456c-0.384-0.959-0.727-1.961-1.402-2.628c-1.123-3.141-3.614-4.914-4.73-8.061
	c3.932,2.885,6.848,6.885,9.988,10.514c9.451,10.922,17.999,22.849,26.285,35.222c10.935,16.33,19.711,35.412,20.853,60.981
	c0.111,0.59-0.226,1.628,0.176,1.928c0.422,7.667-0.593,16.531-2.454,23.131c-0.601,2.133-1.681,5.314,0.526,6.133
	c3.736,1.386,7.626-4.647,9.462-5.082c-1.259,3.559-2.233,7.187-4.556,10.339c-1.901,2.581-6.704,4.289-3.68,8.938
	c0.428,1.149,0.953,2.2,1.577,3.154c3.389,7.632,6.741,15.229,10.163,23.481c0.961,2.316,3.283,5.677,2.629,8.236
	c-0.817,3.194-4.973,2.219-8.236,3.68c-1.769,0.792-3.45,2.809-3.329,5.257c0.131,2.643,3.381,3.603,4.205,5.958
	c1.353,3.862-0.646,7.757-3.154,9.463c-1.653,1.125-4.079,1.204-5.607,2.278c-0.102,0.686,0.151,1.018,0.351,1.402
	c0.861,1.008,1.797,1.942,2.804,2.804c0.244,0.75,0.774,1.212,0.876,2.103c0,0.584,0,1.168,0,1.752
	c-0.569,1.935-0.824,3.043-2.277,4.381c-1.482,1.364-4.105,1.661-4.731,3.33c-0.76,2.024,0.713,3.919,0.701,6.483
	c0,1.285,0,2.57,0,3.855c-0.195,10.242-8.737,16.27-18.225,16.297c-5.394,0.016-11.608-2.292-16.647-4.731
	c-6.275-3.038-10.702-7.193-19.275-6.309c-3.172,0.327-5.286,1.867-7.535,3.68c-0.658,0.511-1.242,1.095-1.753,1.753
	c-7.983,11.032-15.61,24.442-19.977,39.603c-2.282,7.924-3.899,17.693-1.928,26.11c0.93,3.967,2.458,7.485,4.381,10.514
	c1.892,2.979,4.649,5.23,6.309,8.411c-2.526-0.568-3.569-2.621-5.433-3.854c-1.621-1.768-3.314-3.462-5.081-5.082
	c-0.182-0.462-0.695-0.591-0.876-1.052c-0.57-0.716-1.212-1.358-1.928-1.927c-7.327-8.406-14.695-17.29-20.503-27.337
	c-5.823-10.074-11.669-20.114-20.327-27.512c-0.861-1.008-1.796-1.942-2.804-2.804c-0.461-0.182-0.591-0.695-1.052-0.876
	c-1.271-1.417-2.613-2.761-4.03-4.031C232.136,312.551,218.311,302.019,200.994,294.977z"/>
<path fill-rule="evenodd" clip-rule="evenodd" fill="#8D4E9F" d="M196.964,1.459c0.584,0,1.168,0,1.753,0
	c41.251,2.673,73.084,14.768,95.327,36.449c0.681,0.78,1.527,1.394,2.278,2.103c1.212,1.358,2.497,2.643,3.854,3.855
	c0.76,0.817,1.456,1.698,2.278,2.453c19.907,22.617,35.537,49.509,38.201,89.37c0,0.759,0,1.519,0,2.278
	c0.11,0.533-0.224,1.51,0.176,1.752c0,1.636,0,3.271,0,4.907c-0.399,0.243-0.065,1.22-0.176,1.752c0,0.701,0,1.402,0,2.103
	c-2.958,40.674-18.134,69.134-38.902,91.999c-0.059,0-0.116,0-0.175,0c-0.182,0.461-0.694,0.59-0.876,1.051
	c-1.008,0.861-1.942,1.796-2.804,2.804c-0.367,0.218-0.659,0.509-0.877,0.876c-11.115,10.233-24.354,18.43-38.551,25.409
	c-14.184,6.972-29.051,13.986-45.211,18.75c-4.215,1.743-8.76,3.156-12.267,5.607c-0.604,0.271-1.54,0.546-2.277,0.175
	c-3.773-2.068-7.69-3.992-11.391-6.133c-6.212-3.326-12.969-6.435-20.853-7.885c-19.483-3.585-37.193-10.299-50.117-21.379
	c-2.745-2.353-5.74-5.362-6.308-8.937c0-0.642,0-1.285,0-1.927c1.903-7.968,7.885-11.858,12.266-17.348c0.059,0,0.117,0,0.175,0
	c0.119-0.407,0.583-0.469,0.701-0.876c1.066-0.92,2.059-1.913,2.979-2.979c0.425-0.276,0.775-0.627,1.052-1.051
	c13.605-12.694,29.474-22.435,49.591-29.615c14.456-5.159,30.831-8.541,46.613-12.792c6.209-1.673,12.082-3.156,15.946-6.834
	c1.124-0.978,2.176-2.029,3.154-3.154c0.058,0,0.116,0,0.175,0c0.662-0.857,1.408-1.63,2.103-2.454
	c6.707-7.17,14.385-15.71,20.503-24.883c1.757-2.635,4.974-7.054,4.556-10.514c-0.427-3.543-5.034-4.462-8.937-4.906
	c-0.243-0.4-1.22-0.065-1.753-0.175c-1.286-0.408-3.328-0.06-4.906-0.175c-0.532,0.11-1.509-0.225-1.752,0.175
	c-0.764,0.113-1.981-0.229-2.453,0.175c-10.456,0.497-20.731,3.039-29.79,5.607c-3.177,0.901-6.486,1.435-9.112,2.628
	c-2.444,1.111-3.704,4.017-5.607,5.607c-0.781,0.505-1.089,1.481-1.928,1.928c-0.774,0.628-1.476,1.329-2.103,2.103
	c-0.689,0.42-1.063,1.156-1.753,1.577c-1.008,0.862-1.942,1.796-2.804,2.804c-0.482,0.335-0.892,0.744-1.227,1.227
	c-0.518,0.242-0.71,0.809-1.227,1.051c-0.774,0.628-1.476,1.329-2.103,2.103c-0.425,0.276-0.775,0.627-1.052,1.051
	c-0.407,0.119-0.469,0.582-0.876,0.701c-0.658,0.511-1.242,1.095-1.753,1.752c-0.309,0.159-0.542,0.392-0.7,0.701
	c-0.367,0.217-0.659,0.51-0.877,0.876c-0.686,0.658-1.499,1.188-2.103,1.928c-19.311,18.087-40.718,33.146-65.187,46.086
	c-8.13,4.3-16.917,8.515-27.687,9.288c-1.11,0-2.22,0-3.33,0c-19.456-0.264-20.839-18.974-25.234-34.872
	c-1.029-3.721-2.286-7.722-3.33-11.741c-1.084-4.172-2.296-8.566-2.103-12.967c0.401-9.119,6.168-14.12,10.164-19.802
	c0.156-0.078,0.313-0.154,0.351-0.351c1.007-0.861,1.942-1.796,2.804-2.804c0.252-0.098,0.428-0.273,0.525-0.525
	c7.293-6.471,16.393-10.483,25.234-14.895c8.907-4.445,18.157-8.574,27.337-12.792c18.339-8.427,37.592-16.204,57.652-22.43
	c8.749-12.922,15.94-27.4,21.729-43.283c0.058,0,0.116,0,0.175,0c0.406-1.458-1.415-0.688-2.277-0.876
	c-0.533,0.11-1.51-0.224-1.753,0.175c-27.108,1.747-48.446,9.265-68.692,17.874c1.098,3.166,2.352,6.175,2.453,10.339
	c0,0.643,0,1.285,0,1.927c-0.959,11.658-5.84,19.394-11.565,26.285c-0.657,0.511-1.242,1.095-1.752,1.752
	c-5.611,5.436-13.61,7.913-21.904,10.339c-8.203,2.399-17.078,4.781-26.285,5.783c-0.701,0-1.402,0-2.103,0
	c-4.202-0.413-6.415-2.814-7.01-6.834c0-0.935,0-1.869,0-2.804c0.85-6.464,3.581-11.516,5.958-16.998
	C74.7,78.363,80.302,65.376,89.02,56.132c0.833-0.686,1.592-1.445,2.278-2.278c6.713-6.079,14.038-11.546,21.904-16.472
	c2.061-4.072,4.706-7.561,7.535-10.865c0.679-0.664,1.298-1.389,1.928-2.103c0.482-0.335,0.892-0.744,1.227-1.227
	c0.686-0.541,1.27-1.184,1.928-1.752c13.514-12.654,34.493-17.844,58.528-19.977c0.643,0,1.285,0,1.927,0
	c0.533-0.11,1.51,0.224,1.753-0.175c1.635,0,3.271,0,4.906,0c0.357,0.402,1.455,0.063,2.103,0.175
	C195.679,1.459,196.321,1.459,196.964,1.459z M187.326,5.49c-22.426,1.202-40.317,8.153-55.024,17.348
	c-4.917,3.074-9.786,6.764-11.39,12.792c0.822,0.23,1.923,0.18,2.979,0.175c0.246,0.291,1.682,0.291,1.928,0
	c10.141,0.673,11.843-8.307,16.647-12.617c8.476-7.605,18.652-10.813,33.47-12.792c1.577,0,3.154,0,4.731,0
	c7.878,0.475,13.646,3.06,18.225,6.834c0.803,0.949,1.679,1.825,2.629,2.628c2.064,2.807,4.358,5.832,5.607,9.638
	c1.146,3.498,2.166,9.349,1.227,13.143c-1.514,6.107-3.239,11.845-5.433,16.647c-4.086,8.946-8.032,17.037-13.143,24.357
	c-5.268,7.546-9.654,15.839-15.946,21.904c-1.417,1.271-2.76,2.614-4.03,4.031c-8.726,7.976-18.314,15.051-28.038,21.904
	c-9.773,6.888-19.452,14.187-30.491,19.626c-1.207,0.663-2.572,1.167-3.68,1.928c-6.419,2.977-13.76,6.142-21.204,8.762
	c-5.901,2.077-15.098,4.374-21.904,1.928c-0.782-0.281-1.643-0.854-2.453-0.701c0.999,7.965,3.598,15.085,5.783,22.956
	c2.502,9.016,3.767,20.53,9.288,26.11c8.773,8.868,26.097,2.845,35.573-1.577c9.71-4.532,18.74-10.032,27.161-15.246
	c18.165-11.245,33.415-24.381,47.313-37.5c0.716-0.569,1.358-1.212,1.928-1.928c0.806-0.538,1.298-1.389,2.104-1.928
	c0.832-0.686,1.592-1.445,2.277-2.278c0.98-0.714,1.649-1.739,2.629-2.453c1.241-1.095,2.409-2.263,3.505-3.505
	c15.93-17.131,32.189-33.931,43.282-55.9c0.636-0.474,0.784-1.436,1.228-2.103c0.074-0.334,0.377-0.44,0.35-0.876
	c0.45-0.602,0.799-1.304,1.052-2.103c3.981-8.577,7.798-17.319,8.762-28.914c0.401-0.3,0.064-1.337,0.176-1.927
	c0-1.344,0-2.687,0-4.03c-0.111-0.59,0.226-1.628-0.176-1.928c-1.216-14.733-8.82-24.337-18.399-30.841
	c-9.663-6.561-22.612-10.696-37.676-11.565c-0.646-0.405-2.042-0.062-2.979-0.175c-1.636,0-3.271,0-4.907,0
	C189.368,5.428,187.972,5.084,187.326,5.49z M265.306,40.361c-0.938-0.292-3.093-0.292-4.03,0c-1.776,0.094-2.821,0.917-3.681,1.928
	c0.148,2.539,0.648,4.726,0.701,7.36c0,1.402,0,2.804,0,4.206c-0.419,9.219-2.792,16.484-5.257,23.657
	c2.589,1.5,5.501,2.676,9.463,2.804c1.636,0.408,4.029,0.059,5.958,0.175c1.461,0.408,3.679,0.059,5.432,0.175
	c3.096,0,6.192,0,9.288,0c0.763-0.113,1.98,0.229,2.453-0.175c0.467,0,0.935,0,1.401,0c0.706-0.113,1.863,0.228,2.278-0.175
	c0.059,0,0.117,0,0.176,0c0.642,0,1.285,0,1.927,0c0.533-0.11,1.51,0.224,1.753-0.175c0.292,0,0.584,0,0.876,0
	c0.117-1.343,0.44-2.48,0.351-4.03c0.399-0.243,0.065-1.22,0.175-1.752c0.292-1.404,0.292-4.029,0-5.433
	c-0.303-6.706-2.521-11.498-2.804-18.224C283.79,46.409,275.836,42.097,265.306,40.361z M299.477,50.35
	c-0.873-0.514-3.555-3.935-3.681-0.876c-0.291,0.417-0.291,2.037,0,2.453c0.354,5.954,2.283,10.334,2.629,16.297
	c0,2.278,0,4.556,0,6.834c-2.443,20.104-7.3,37.794-14.545,53.096c-0.76,1.109-1.265,2.474-1.927,3.68
	c-7.678,15.103-17.572,27.99-28.563,39.778c-0.774,0.628-1.476,1.329-2.103,2.103c-1.797,1.942-3.666,3.812-5.607,5.607
	c-0.833,0.686-1.593,1.445-2.278,2.278c-26.303,23.348-52.684,46.324-84.463,63.785c-5.376,2.954-11.119,5.502-17.173,7.535
	c-6.368,2.138-13.175,2.559-20.327,4.556c0.132,1.29,1.795,2.513,3.154,3.154c0.438,0.554,1.197,0.788,1.927,1.051
	c5.834,3.113,12.359,5.972,19.276,8.411c6.834,2.41,14.501,5.55,21.904,6.834c0.879,0.292,2.976,0.292,3.855,0
	c19.248-4.107,34.302-13.771,48.54-23.307c14.378-9.628,28.481-19.309,40.83-31.191c0.657-0.511,1.241-1.095,1.752-1.752
	c1.038-0.773,1.766-1.855,2.804-2.628c0.95-0.803,1.826-1.679,2.629-2.628c0.772-1.038,1.855-1.766,2.628-2.804
	c0.658-0.511,1.242-1.095,1.753-1.752c13.481-14.439,25.635-30.206,34.871-48.891c0.972-1.248,1.599-2.841,2.278-4.381
	c6.474-13.62,12.781-27.406,14.369-45.912c0.4-0.243,0.065-1.22,0.176-1.752c0-0.35,0-0.701,0-1.051c0.291-1.753,0.291-4.73,0-6.483
	c-1.253-22.696-11.239-36.659-22.255-49.592C301.185,51.912,300.367,51.094,299.477,50.35z M123.541,57.885
	c-1.246-0.109-2.643,0.782-4.206,1.402c-3.911,1.552-7.686,3.022-11.565,4.381c-7.14,2.5-16.191,6.297-21.904,2.453
	c-3.504,5.876-6.894,12.483-10.164,19.802c-2.812,6.293-6.871,14.922-8.586,21.904c-0.291,0.359-0.291,1.918,0,2.278
	c-0.064,5.612,7.632,3.439,12.091,2.629c10.94-1.988,20.981-4.904,29.79-8.412c5.663-2.254,10.476-6.674,13.844-11.565
	c3.479-5.053,6.719-11.721,7.185-18.224c0.482-6.736-1.296-10.299-4.206-14.37C125.132,59.33,124.373,58.571,123.541,57.885z
	 M327.514,165.479c-0.021-3.933-1.805-5.708-3.154-8.762c-1.029-2.33-2.094-5.776-4.731-6.133c-3.137-0.424-3.508,2.287-4.556,4.556
	c-4.64,10.048-9.151,18.211-14.72,26.811c-1.011,1.56-2.61,3.431-2.629,4.381c-0.033,1.74,1.942,2.819,3.154,3.505
	c4.301,2.433,8.266,6.17,9.813,10.339c0.293,0.79,0.367,4.631,1.928,4.907c2.185,0.386,4.437-5.225,5.432-7.36
	c4.273-9.171,7.869-18.525,9.463-29.439C327.805,167.751,327.805,166.011,327.514,165.479z M270.388,228.739
	c-7.168-4.801-13.508,2.696-17.699,6.133c-15.112,12.391-31.138,23.795-48.014,33.82c-2.781,1.652-5.921,3.084-8.062,5.607
	c4.034,2.566,9.564,3.637,13.844,5.958c9.73-3.617,19.813-7.321,29.439-11.39c9.733-4.115,19.521-7.95,26.636-14.369
	c1.125-0.978,2.176-2.03,3.154-3.154c2.534-3.189,5.132-6.316,5.782-11.39c0.291-0.359,0.291-1.919,0-2.278
	c-0.251-3.136-1.731-5.044-3.154-7.01C271.745,229.95,271.104,229.308,270.388,228.739z"/>
</svg>
